<svg xmlns="http://www.w3.org/2000/svg" viewBox="0 0 1920 1080" role="img"><rect x="0" y="0" width="1920" height="1080" rx="0" fill="#263444" stroke="none" stroke-width="0" opacity="1"/><rect x="100" y="128" width="1720" height="662" rx="65" fill="#526b48" stroke="#243629" stroke-width="12" opacity="1"/><rect x="120" y="143" width="1680" height="615" rx="55" fill="#92bd57" stroke="#72974d" stroke-width="5" opacity="1"/><rect x="145" y="166" width="1630" height="567" rx="45" fill="#9ac85d" stroke="#72974d" stroke-width="3" opacity="1"/><polygon points="234.4,242.0 205.0,259.0 175.6,242.0 175.6,208.0 205.0,191.0 234.4,208.0" fill="#40865d" stroke="#286646" stroke-width="2"/><polygon points="1757.2,256.5 1720.0,278.0 1682.8,256.5 1682.8,213.5 1720.0,192.0 1757.2,213.5" fill="#40865d" stroke="#286646" stroke-width="2"/><polygon points="223.1,624.5 198.0,639.0 172.9,624.5 172.9,595.5 198.0,581.0 223.1,595.5" fill="#40865d" stroke="#286646" stroke-width="2"/><polygon points="1744.0,633.5 1712.0,652.0 1680.0,633.5 1680.0,596.5 1712.0,578.0 1744.0,596.5" fill="#40865d" stroke="#286646" stroke-width="2"/><polygon points="324.7,191.5 310.0,200.0 295.3,191.5 295.3,174.5 310.0,166.0 324.7,174.5" fill="#40865d" stroke="#286646" stroke-width="2"/><polygon points="1614.5,703.5 1598.0,713.0 1581.5,703.5 1581.5,684.5 1598.0,675.0 1614.5,684.5" fill="#40865d" stroke="#286646" stroke-width="2"/><polygon points="292.1,676.0 273.0,687.0 253.9,676.0 253.9,654.0 273.0,643.0 292.1,654.0" fill="#9aaabc" stroke="#728397" stroke-width="2"/><polygon points="1679.9,486.5 1660.0,498.0 1640.1,486.5 1640.1,463.5 1660.0,452.0 1679.9,463.5" fill="#9aaabc" stroke="#728397" stroke-width="2"/><polygon points="360.6,186.0 345.0,195.0 329.4,186.0 329.4,168.0 345.0,159.0 360.6,168.0" fill="#9aaabc" stroke="#728397" stroke-width="2"/><polygon points="1583.7,213.5 1569.0,222.0 1554.3,213.5 1554.3,196.5 1569.0,188.0 1583.7,196.5" fill="#9aaabc" stroke="#728397" stroke-width="2"/><polygon points="505.3,280.5 449.0,313.0 392.7,280.5 392.7,215.5 449.0,183.0 505.3,215.5" fill="#85bace" stroke="#3478ad" stroke-width="3"/><polygon points="622.3,280.5 566.0,313.0 509.7,280.5 509.7,215.5 566.0,183.0 622.3,215.5" fill="#85bace" stroke="#3478ad" stroke-width="3"/><polygon points="739.3,280.5 683.0,313.0 626.7,280.5 626.7,215.5 683.0,183.0 739.3,215.5" fill="#9bc45e" stroke="#6f954d" stroke-width="3"/><polygon points="856.3,280.5 800.0,313.0 743.7,280.5 743.7,215.5 800.0,183.0 856.3,215.5" fill="#9bc45e" stroke="#6f954d" stroke-width="3"/><polygon points="973.3,280.5 917.0,313.0 860.7,280.5 860.7,215.5 917.0,183.0 973.3,215.5" fill="#9bc45e" stroke="#6f954d" stroke-width="3"/><polygon points="1090.3,280.5 1034.0,313.0 977.7,280.5 977.7,215.5 1034.0,183.0 1090.3,215.5" fill="#9bc45e" stroke="#6f954d" stroke-width="3"/><polygon points="1207.3,280.5 1151.0,313.0 1094.7,280.5 1094.7,215.5 1151.0,183.0 1207.3,215.5" fill="#9bc45e" stroke="#6f954d" stroke-width="3"/><polygon points="1324.3,280.5 1268.0,313.0 1211.7,280.5 1211.7,215.5 1268.0,183.0 1324.3,215.5" fill="#d4ad90" stroke="#ba6254" stroke-width="3"/><polygon points="1441.3,280.5 1385.0,313.0 1328.7,280.5 1328.7,215.5 1385.0,183.0 1441.3,215.5" fill="#d4ad90" stroke="#ba6254" stroke-width="3"/><polygon points="563.8,383.5 507.5,416.0 451.2,383.5 451.2,318.5 507.5,286.0 563.8,318.5" fill="#85bace" stroke="#3478ad" stroke-width="3"/><polygon points="680.8,383.5 624.5,416.0 568.2,383.5 568.2,318.5 624.5,286.0 680.8,318.5" fill="#85bace" stroke="#3478ad" stroke-width="3"/><polygon points="797.8,383.5 741.5,416.0 685.2,383.5 685.2,318.5 741.5,286.0 797.8,318.5" fill="#9bc45e" stroke="#6f954d" stroke-width="3"/><polygon points="914.8,383.5 858.5,416.0 802.2,383.5 802.2,318.5 858.5,286.0 914.8,318.5" fill="#9bc45e" stroke="#6f954d" stroke-width="3"/><polygon points="1031.8,383.5 975.5,416.0 919.2,383.5 919.2,318.5 975.5,286.0 1031.8,318.5" fill="#9bc45e" stroke="#6f954d" stroke-width="3"/><polygon points="1148.8,383.5 1092.5,416.0 1036.2,383.5 1036.2,318.5 1092.5,286.0 1148.8,318.5" fill="#9bc45e" stroke="#6f954d" stroke-width="3"/><polygon points="1265.8,383.5 1209.5,416.0 1153.2,383.5 1153.2,318.5 1209.5,286.0 1265.8,318.5" fill="#9bc45e" stroke="#6f954d" stroke-width="3"/><polygon points="1382.8,383.5 1326.5,416.0 1270.2,383.5 1270.2,318.5 1326.5,286.0 1382.8,318.5" fill="#d4ad90" stroke="#ba6254" stroke-width="3"/><polygon points="1499.8,383.5 1443.5,416.0 1387.2,383.5 1387.2,318.5 1443.5,286.0 1499.8,318.5" fill="#d4ad90" stroke="#ba6254" stroke-width="3"/><polygon points="505.3,486.5 449.0,519.0 392.7,486.5 392.7,421.5 449.0,389.0 505.3,421.5" fill="#85bace" stroke="#3478ad" stroke-width="3"/><polygon points="622.3,486.5 566.0,519.0 509.7,486.5 509.7,421.5 566.0,389.0 622.3,421.5" fill="#85bace" stroke="#3478ad" stroke-width="3"/><polygon points="739.3,486.5 683.0,519.0 626.7,486.5 626.7,421.5 683.0,389.0 739.3,421.5" fill="#9bc45e" stroke="#6f954d" stroke-width="3"/><polygon points="856.3,486.5 800.0,519.0 743.7,486.5 743.7,421.5 800.0,389.0 856.3,421.5" fill="#9bc45e" stroke="#6f954d" stroke-width="3"/><polygon points="973.3,486.5 917.0,519.0 860.7,486.5 860.7,421.5 917.0,389.0 973.3,421.5" fill="#9bc45e" stroke="#6f954d" stroke-width="3"/><polygon points="1090.3,486.5 1034.0,519.0 977.7,486.5 977.7,421.5 1034.0,389.0 1090.3,421.5" fill="#9bc45e" stroke="#6f954d" stroke-width="3"/><polygon points="1207.3,486.5 1151.0,519.0 1094.7,486.5 1094.7,421.5 1151.0,389.0 1207.3,421.5" fill="#9bc45e" stroke="#6f954d" stroke-width="3"/><polygon points="1324.3,486.5 1268.0,519.0 1211.7,486.5 1211.7,421.5 1268.0,389.0 1324.3,421.5" fill="#d4ad90" stroke="#ba6254" stroke-width="3"/><polygon points="1441.3,486.5 1385.0,519.0 1328.7,486.5 1328.7,421.5 1385.0,389.0 1441.3,421.5" fill="#d4ad90" stroke="#ba6254" stroke-width="3"/><polygon points="563.8,589.5 507.5,622.0 451.2,589.5 451.2,524.5 507.5,492.0 563.8,524.5" fill="#85bace" stroke="#3478ad" stroke-width="3"/><polygon points="680.8,589.5 624.5,622.0 568.2,589.5 568.2,524.5 624.5,492.0 680.8,524.5" fill="#85bace" stroke="#3478ad" stroke-width="3"/><polygon points="797.8,589.5 741.5,622.0 685.2,589.5 685.2,524.5 741.5,492.0 797.8,524.5" fill="#9bc45e" stroke="#6f954d" stroke-width="3"/><polygon points="914.8,589.5 858.5,622.0 802.2,589.5 802.2,524.5 858.5,492.0 914.8,524.5" fill="#9bc45e" stroke="#6f954d" stroke-width="3"/><polygon points="1031.8,589.5 975.5,622.0 919.2,589.5 919.2,524.5 975.5,492.0 1031.8,524.5" fill="#9bc45e" stroke="#6f954d" stroke-width="3"/><polygon points="1148.8,589.5 1092.5,622.0 1036.2,589.5 1036.2,524.5 1092.5,492.0 1148.8,524.5" fill="#9bc45e" stroke="#6f954d" stroke-width="3"/><polygon points="1265.8,589.5 1209.5,622.0 1153.2,589.5 1153.2,524.5 1209.5,492.0 1265.8,524.5" fill="#9bc45e" stroke="#6f954d" stroke-width="3"/><polygon points="1382.8,589.5 1326.5,622.0 1270.2,589.5 1270.2,524.5 1326.5,492.0 1382.8,524.5" fill="#d4ad90" stroke="#ba6254" stroke-width="3"/><polygon points="1499.8,589.5 1443.5,622.0 1387.2,589.5 1387.2,524.5 1443.5,492.0 1499.8,524.5" fill="#d4ad90" stroke="#ba6254" stroke-width="3"/><polygon points="505.3,692.5 449.0,725.0 392.7,692.5 392.7,627.5 449.0,595.0 505.3,627.5" fill="#85bace" stroke="#3478ad" stroke-width="3"/><polygon points="622.3,692.5 566.0,725.0 509.7,692.5 509.7,627.5 566.0,595.0 622.3,627.5" fill="#85bace" stroke="#3478ad" stroke-width="3"/><polygon points="739.3,692.5 683.0,725.0 626.7,692.5 626.7,627.5 683.0,595.0 739.3,627.5" fill="#9bc45e" stroke="#6f954d" stroke-width="3"/><polygon points="856.3,692.5 800.0,725.0 743.7,692.5 743.7,627.5 800.0,595.0 856.3,627.5" fill="#9bc45e" stroke="#6f954d" stroke-width="3"/><polygon points="973.3,692.5 917.0,725.0 860.7,692.5 860.7,627.5 917.0,595.0 973.3,627.5" fill="#9bc45e" stroke="#6f954d" stroke-width="3"/><polygon points="1090.3,692.5 1034.0,725.0 977.7,692.5 977.7,627.5 1034.0,595.0 1090.3,627.5" fill="#9bc45e" stroke="#6f954d" stroke-width="3"/><polygon points="1207.3,692.5 1151.0,725.0 1094.7,692.5 1094.7,627.5 1151.0,595.0 1207.3,627.5" fill="#9bc45e" stroke="#6f954d" stroke-width="3"/><polygon points="1324.3,692.5 1268.0,725.0 1211.7,692.5 1211.7,627.5 1268.0,595.0 1324.3,627.5" fill="#d4ad90" stroke="#ba6254" stroke-width="3"/><polygon points="1441.3,692.5 1385.0,725.0 1328.7,692.5 1328.7,627.5 1385.0,595.0 1441.3,627.5" fill="#d4ad90" stroke="#ba6254" stroke-width="3"/><circle cx="449" cy="248" r="39" fill="#4c7183" stroke="#28669f" stroke-width="6"/><text x="449" y="257" font-family="Arial, sans-serif" font-size="29" font-weight="700" fill="#FFFFFF" text-anchor="middle">T</text><circle cx="507" cy="351" r="27" fill="#4e9a3e" stroke="#28669f" stroke-width="6"/><text x="507" y="360" font-family="Arial, sans-serif" font-size="29" font-weight="700" fill="#FFFFFF" text-anchor="middle">G</text><circle cx="566" cy="454" r="27" fill="#4e9a3e" stroke="#28669f" stroke-width="6"/><text x="566" y="463" font-family="Arial, sans-serif" font-size="29" font-weight="700" fill="#FFFFFF" text-anchor="middle">G</text><circle cx="1385" cy="248" r="27" fill="#4e9a3e" stroke="#bd5b50" stroke-width="6"/><text x="1385" y="257" font-family="Arial, sans-serif" font-size="29" font-weight="700" fill="#FFFFFF" text-anchor="middle">G</text><circle cx="1326" cy="351" r="27" fill="#4e9a3e" stroke="#bd5b50" stroke-width="6"/><text x="1326" y="360" font-family="Arial, sans-serif" font-size="29" font-weight="700" fill="#FFFFFF" text-anchor="middle">G</text><circle cx="1385" cy="454" r="27" fill="#4e9a3e" stroke="#bd5b50" stroke-width="6"/><text x="1385" y="463" font-family="Arial, sans-serif" font-size="29" font-weight="700" fill="#FFFFFF" text-anchor="middle">G</text><circle cx="1326" cy="557" r="27" fill="#4e9a3e" stroke="#bd5b50" stroke-width="6"/><text x="1326" y="566" font-family="Arial, sans-serif" font-size="29" font-weight="700" fill="#FFFFFF" text-anchor="middle">G</text><rect x="22" y="18" width="1876" height="105" rx="15" fill="#1d2622" stroke="#8ca3a0" stroke-width="2" opacity="0.97"/><text x="60" y="67" font-family="Arial, sans-serif" font-size="31" font-weight="600" fill="#F1E8D5" text-anchor="start">A  МИССИЯ 1 · ПЕРВЫЙ БОЙ</text><text x="60" y="99" font-family="Arial, sans-serif" font-size="19" font-weight="500" fill="#c6c2aa" text-anchor="start">Цель · награда · первая победа</text><rect x="1700" y="38" width="170" height="65" rx="12" fill="#465344" stroke="#9aa9aa" stroke-width="2" opacity="1"/><text x="1785" y="78" font-family="Arial, sans-serif" font-size="23" font-weight="700" fill="#f1e8d5" text-anchor="middle">НАЗАД</text><rect x="1526" y="162" width="285" height="176" rx="13" fill="#263b3d" stroke="#8ba6a5" stroke-width="2" opacity="0.96"/><text x="1550" y="202" font-family="Arial, sans-serif" font-size="23" font-weight="600" fill="#F1E8D5" text-anchor="start">B  ПРОТИВНИК</text><text x="1550" y="245" font-family="Arial, sans-serif" font-size="26" font-weight="600" fill="#e5b5a7" text-anchor="start">4 × ГОБЛИН</text><text x="1550" y="292" font-family="Arial, sans-serif" font-size="18" font-weight="500" fill="#c6c2aa" text-anchor="start">Состав и параметры</text><rect x="22" y="778" width="1876" height="280" rx="16" fill="#1d2622" stroke="#8ca3a0" stroke-width="2" opacity="0.97"/><rect x="42" y="799" width="1088" height="238" rx="10" fill="#2a362d" stroke="#65755b" stroke-width="2" opacity="1"/><text x="62" y="832" font-family="Arial, sans-serif" font-size="22" font-weight="600" fill="#F1E8D5" text-anchor="start">D  ОТРЯД · 3 ИЗ 4</text><rect x="57" y="852" width="249" height="166" rx="10" fill="#3c4b3b" stroke="#859685" stroke-width="2" opacity="1"/><rect x="71" y="869" width="58" height="58" rx="6" fill="#5d8060" stroke="#a2ba92" stroke-width="2" opacity="1"/><text x="140" y="893" font-family="Arial, sans-serif" font-size="19" font-weight="600" fill="#F1E8D5" text-anchor="start">Тролль</text><text x="140" y="919" font-family="Arial, sans-serif" font-size="14" font-weight="500" fill="#c6c2aa" text-anchor="start">ШАХТА</text><rect x="72" y="944" width="218" height="54" rx="6" fill="#283c35" stroke="#728575" stroke-width="1" opacity="1"/><text x="88" y="976" font-family="Arial, sans-serif" font-size="17" font-weight="500" fill="#e7d5b3" text-anchor="start">⚔  ◈   HP / ATK / ARM</text><rect x="322" y="852" width="249" height="166" rx="10" fill="#3c4b3b" stroke="#859685" stroke-width="2" opacity="1"/><rect x="336" y="869" width="58" height="58" rx="6" fill="#5d8060" stroke="#a2ba92" stroke-width="2" opacity="1"/><text x="405" y="893" font-family="Arial, sans-serif" font-size="19" font-weight="600" fill="#F1E8D5" text-anchor="start">Гоблин</text><text x="405" y="919" font-family="Arial, sans-serif" font-size="14" font-weight="500" fill="#c6c2aa" text-anchor="start">НОСИЛЬЩИК</text><rect x="337" y="944" width="218" height="54" rx="6" fill="#283c35" stroke="#728575" stroke-width="1" opacity="1"/><text x="353" y="976" font-family="Arial, sans-serif" font-size="17" font-weight="500" fill="#e7d5b3" text-anchor="start">⚔  ◈   HP / ATK / ARM</text><rect x="587" y="852" width="249" height="166" rx="10" fill="#3c4b3b" stroke="#859685" stroke-width="2" opacity="1"/><rect x="601" y="869" width="58" height="58" rx="6" fill="#5d8060" stroke="#a2ba92" stroke-width="2" opacity="1"/><text x="670" y="893" font-family="Arial, sans-serif" font-size="19" font-weight="600" fill="#F1E8D5" text-anchor="start">Гоблин</text><text x="670" y="919" font-family="Arial, sans-serif" font-size="14" font-weight="500" fill="#c6c2aa" text-anchor="start">СВОБОДЕН</text><rect x="602" y="944" width="218" height="54" rx="6" fill="#283c35" stroke="#728575" stroke-width="1" opacity="1"/><text x="618" y="976" font-family="Arial, sans-serif" font-size="17" font-weight="500" fill="#e7d5b3" text-anchor="start">⚔  ◈   HP / ATK / ARM</text><rect x="852" y="852" width="249" height="166" rx="10" fill="#3c4b3b" stroke="#859685" stroke-width="2" opacity="1"/><rect x="866" y="869" width="58" height="58" rx="6" fill="#5d8060" stroke="#a2ba92" stroke-width="2" opacity="1"/><text x="935" y="893" font-family="Arial, sans-serif" font-size="19" font-weight="600" fill="#F1E8D5" text-anchor="start">ПУСТО</text><text x="935" y="919" font-family="Arial, sans-serif" font-size="14" font-weight="500" fill="#c6c2aa" text-anchor="start">+</text><rect x="867" y="944" width="218" height="54" rx="6" fill="#283c35" stroke="#728575" stroke-width="1" opacity="1"/><text x="883" y="976" font-family="Arial, sans-serif" font-size="17" font-weight="500" fill="#e7d5b3" text-anchor="start">⚔  ◈   HP / ATK / ARM</text><rect x="1150" y="799" width="390" height="238" rx="10" fill="#2a362d" stroke="#65755b" stroke-width="2" opacity="1"/><text x="1170" y="832" font-family="Arial, sans-serif" font-size="22" font-weight="600" fill="#F1E8D5" text-anchor="start">E  СНАРЯЖЕНИЕ</text><text x="1170" y="865" font-family="Arial, sans-serif" font-size="18" font-weight="500" fill="#c6c2aa" text-anchor="start">Выбран: Гоблин</text><rect x="1170" y="887" width="158" height="95" rx="8" fill="#3c4b3b" stroke="#859685" stroke-width="2" opacity="1"/><rect x="1345" y="887" width="172" height="95" rx="8" fill="#3c4b3b" stroke="#859685" stroke-width="2" opacity="1"/><text x="1249" y="926" font-family="Arial, sans-serif" font-size="18" font-weight="700" fill="#f1e8d5" text-anchor="middle">ОРУЖИЕ</text><text x="1431" y="926" font-family="Arial, sans-serif" font-size="18" font-weight="700" fill="#f1e8d5" text-anchor="middle">БРОНЯ</text><text x="1170" y="1010" font-family="Arial, sans-serif" font-size="17" font-weight="500" fill="#c6c2aa" text-anchor="start">Инвентарь поселения</text><rect x="1560" y="799" width="316" height="113" rx="10" fill="#2a362d" stroke="#65755b" stroke-width="2" opacity="1"/><text x="1580" y="832" font-family="Arial, sans-serif" font-size="20" font-weight="600" fill="#F1E8D5" text-anchor="start">F  ПОСЛЕДСТВИЯ</text><text x="1580" y="864" font-family="Arial, sans-serif" font-size="19" font-weight="500" fill="#e7d5b3" text-anchor="start">−2 работника</text><text x="1580" y="890" font-family="Arial, sans-serif" font-size="17" font-weight="500" fill="#c6c2aa" text-anchor="start">Потери постоянны</text><rect x="1560" y="926" width="316" height="91" rx="12" fill="#2670b2" stroke="#b9d9f3" stroke-width="3" opacity="1"/><text x="1718" y="961" font-family="Arial, sans-serif" font-size="24" font-weight="700" fill="#ffffff" text-anchor="middle">G  НАЧАТЬ БОЙ</text><text x="1718" y="993" font-family="Arial, sans-serif" font-size="17" font-weight="500" fill="#deecf7" text-anchor="middle">Подтвердить отряд</text></svg>